# xmcd
#
# Track frame offsets:
#	200
#	11360
#	28282
#	40270
#	59737
#	73502
#	91362
#	102425
#	115435
#	132920
#	143435
#
# Disc length: 2073 seconds
#
# Revision: 2
# Processed by: cddbd v1.4PL0 Copyright (c) Steve Scherf et al.
# Submitted via: CDmax 1.9
#
DISCID=9a08170b
DTITLE=Mike Henderson - Edge Of Night
DYEAR=1996
DGENRE=Country
TTITLE0=I Wouldn't Lay My Guitar Down
TTITLE1=Wherever You Are
TTITLE2=Nobody's Fault But Mine
TTITLE3=The Edge Of Night
TTITLE4=One Foot In The Honky Tonk
TTITLE5=This May Be The Last Time
TTITLE6=You're So Square
TTITLE7=Honky Tonk Vacation (Tribute To Waylon)
TTITLE8=This Property Is Condemned
TTITLE9=Take Me Back And Try Me
TTITLE10=Drivin' Nails In My Coffin
EXTD=
EXTT0=
EXTT1=
EXTT2=
EXTT3=
EXTT4=
EXTT5=
EXTT6=
EXTT7=
EXTT8=
EXTT9=
EXTT10=
PLAYORDER=
